<svg xmlns="http://www.w3.org/2000/svg" width="512" height="512" viewBox="0 0 512 512">
  <defs>
    <radialGradient id="b" cx="50%" cy="42%" r="60%">
      <stop offset="0%" stop-color="#141d44"/>
      <stop offset="100%" stop-color="#02030a"/>
    </radialGradient>
    <linearGradient id="g" x1="0" y1="0" x2="1" y2="1">
      <stop offset="0%" stop-color="#f4dfae"/>
      <stop offset="55%" stop-color="#d8b56d"/>
      <stop offset="100%" stop-color="#b28d4d"/>
    </linearGradient>
  </defs>
  <rect width="512" height="512" rx="96" fill="url(#b)"/>
  <path transform="translate(106 96) scale(3.0)"
    d="M50 8 C50 8 18 40 18 62 C18 78 30 88 44 88 C46 88 48 87.6 50 87 C50 87 46 96 40 100 L60 100 C54 96 50 87 50 87 C52 87.6 54 88 56 88 C70 88 82 78 82 62 C82 40 50 8 50 8 Z"
    fill="url(#g)"/>
</svg>
